<svg width="189" height="600" viewBox="0 0 189 600" fill="none" xmlns="http://www.w3.org/2000/svg">
<g opacity="0.2" filter="url(#filter0_f)">
<path fill-rule="evenodd" clip-rule="evenodd" d="M94.4741 370C133.134 370 174.474 338.686 174.474 300.058C174.474 232.463 112.697 72.0279 98.2038 22.8455C97.0858 19.0515 91.8625 19.0515 90.7444 22.8455C76.2512 72.0279 14.4741 232.463 14.4741 300.058C14.4741 338.686 55.8142 370 94.4741 370ZM94.4741 349C121.536 349 143.474 327.062 143.474 300C143.474 272.938 121.536 251 94.4741 251C67.4122 251 45.4741 272.938 45.4741 300C45.4741 327.062 67.4122 349 94.4741 349Z" fill="#073592"/>
</g>
<path fill-rule="evenodd" clip-rule="evenodd" d="M94.4741 370C133.134 370 164.474 338.686 164.474 300.058C164.474 232.463 112.697 52.0279 98.2038 2.84554C97.0858 -0.948494 91.8625 -0.948524 90.7444 2.84551C76.2512 52.0279 24.4741 232.463 24.4741 300.058C24.4741 338.686 55.8142 370 94.4741 370ZM94.4741 349C121.536 349 143.474 327.062 143.474 300C143.474 272.938 121.536 251 94.4741 251C67.4122 251 45.4741 272.938 45.4741 300C45.4741 327.062 67.4122 349 94.4741 349Z" fill="#FBBA12"/>
<mask id="mask0" mask-type="alpha" maskUnits="userSpaceOnUse" x="24" y="0" width="141" height="370">
<path fill-rule="evenodd" clip-rule="evenodd" d="M94.4741 370C133.134 370 164.474 338.686 164.474 300.058C164.474 232.463 112.697 52.0279 98.2038 2.84554C97.0858 -0.948494 91.8625 -0.948524 90.7444 2.84551C76.2512 52.0279 24.4741 232.463 24.4741 300.058C24.4741 338.686 55.8142 370 94.4741 370ZM94.4741 349C121.536 349 143.474 327.062 143.474 300C143.474 272.938 121.536 251 94.4741 251C67.4122 251 45.4741 272.938 45.4741 300C45.4741 327.062 67.4122 349 94.4741 349Z" fill="#FBBA12"/>
</mask>
<g mask="url(#mask0)">
<g filter="url(#filter1_f)">
<path d="M94.4741 370C133.134 370 164.474 338.686 164.474 300.058C164.474 232.463 112.697 52.028 98.2038 2.84554C97.6448 0.948524 96.0594 0 94.4741 0V251C121.536 251 143.474 272.938 143.474 300C143.474 327.062 121.536 349 94.4741 349V370Z" fill="#FF9900"/>
</g>
<g filter="url(#filter2_f)">
<path d="M44.2344 330.036C40.5427 186.37 88.1466 26.482 112.41 -35.504L71.4082 -57.9447L45.9645 -29.5428L-10.5259 306L44.2344 330.036Z" fill="#FFE866"/>
</g>
<path opacity="0.3" fill-rule="evenodd" clip-rule="evenodd" d="M94.4741 500C133.134 500 164.474 468.686 164.474 430.058C164.474 362.463 112.697 182.028 98.2038 132.846C97.0858 129.052 91.8625 129.051 90.7444 132.846C76.2512 182.028 24.4741 362.463 24.4741 430.058C24.4741 468.686 55.8142 500 94.4741 500ZM94.4741 479C121.536 479 143.474 457.062 143.474 430C143.474 402.938 121.536 381 94.4741 381C67.4122 381 45.4741 402.938 45.4741 430C45.4741 457.062 67.4122 479 94.4741 479Z" fill="#FFCE51"/>
<path opacity="0.5" fill-rule="evenodd" clip-rule="evenodd" d="M94.4741 557C133.134 557 164.474 525.686 164.474 487.058C164.474 419.463 112.697 239.028 98.2038 189.846C97.0858 186.052 91.8625 186.051 90.7444 189.846C76.2512 239.028 24.4741 419.463 24.4741 487.058C24.4741 525.686 55.8142 557 94.4741 557ZM94.4741 536C121.536 536 143.474 514.062 143.474 487C143.474 459.938 121.536 438 94.4741 438C67.4122 438 45.4741 459.938 45.4741 487C45.4741 514.062 67.4122 536 94.4741 536Z" fill="#FFCE51"/>
<path opacity="0.3" d="M192.38 331.527C241.414 323.049 274.298 276.468 265.829 227.486C251.009 141.773 145.778 -75.6715 116.612 -134.859C114.362 -139.424 107.737 -138.279 107.151 -133.223C99.5521 -67.679 73.4417 172.475 88.262 258.188C96.7312 307.17 143.347 340.005 192.38 331.527Z" fill="#FF5C00"/>
</g>
<defs>
<filter id="filter0_f" x="0.474121" y="6" width="188" height="378" filterUnits="userSpaceOnUse" color-interpolation-filters="sRGB">
<feFlood flood-opacity="0" result="BackgroundImageFix"/>
<feBlend mode="normal" in="SourceGraphic" in2="BackgroundImageFix" result="shape"/>
<feGaussianBlur stdDeviation="7" result="effect1_foregroundBlur"/>
</filter>
<filter id="filter1_f" x="74.4741" y="-20" width="110" height="410" filterUnits="userSpaceOnUse" color-interpolation-filters="sRGB">
<feFlood flood-opacity="0" result="BackgroundImageFix"/>
<feBlend mode="normal" in="SourceGraphic" in2="BackgroundImageFix" result="shape"/>
<feGaussianBlur stdDeviation="10" result="effect1_foregroundBlur"/>
</filter>
<filter id="filter2_f" x="-30.5259" y="-77.9447" width="162.936" height="427.98" filterUnits="userSpaceOnUse" color-interpolation-filters="sRGB">
<feFlood flood-opacity="0" result="BackgroundImageFix"/>
<feBlend mode="normal" in="SourceGraphic" in2="BackgroundImageFix" result="shape"/>
<feGaussianBlur stdDeviation="10" result="effect1_foregroundBlur"/>
</filter>
</defs>
</svg>
