<svg width="16" height="16" viewBox="0 0 16 16" fill="none" xmlns="http://www.w3.org/2000/svg">
<path fill-rule="evenodd" clip-rule="evenodd" d="M8 16C12.4183 16 16 12.4183 16 8C16 3.58172 12.4183 0 8 0C3.58172 0 0 3.58172 0 8C0 12.4183 3.58172 16 8 16ZM8.62294 10.6554L10.832 7.45092C10.9409 7.293 11 7.09825 11 6.89772C11 6.40193 10.6459 6 10.2091 6H5.79097C5.6143 6 5.44272 6.06713 5.30358 6.1907C4.95955 6.49622 4.89887 7.06044 5.16805 7.45092L7.3771 10.6554C7.41661 10.7128 7.46212 10.7644 7.51263 10.8093C7.85666 11.1148 8.35376 11.0459 8.62294 10.6554Z" fill="white"/>
</svg>
