<svg width="22" height="18" viewBox="0 0 22 18" fill="none" xmlns="http://www.w3.org/2000/svg">
<path d="M9.4712 0.7072C9.86922 1.09772 9.86922 1.73089 9.4712 2.12141L3.47982 8L20.9808 8C21.5437 8 22 8.44772 22 9C22 9.55228 21.5437 10 20.9808 10L3.47982 10L9.4712 15.8786C9.86922 16.2691 9.86922 16.9023 9.4712 17.2928C9.07319 17.6833 8.42787 17.6833 8.02985 17.2928L0.310445 9.71872C0.306444 9.71492 0.302466 9.71108 0.298513 9.7072C0.0994803 9.51191 -2.41724e-05 9.25595 4.40462e-09 9C-2.41725e-05 8.74405 0.0994803 8.48809 0.298513 8.2928C0.302462 8.28893 0.306434 8.28509 0.310431 8.28129L8.02985 0.7072C8.42787 0.316676 9.07319 0.316676 9.4712 0.7072Z" fill="#073592"/>
</svg>
