<svg width="22" height="18" viewBox="0 0 22 18" fill="none" xmlns="http://www.w3.org/2000/svg">
<path d="M12.5288 17.2928C12.1308 16.9023 12.1308 16.2691 12.5288 15.8786L18.5202 10L1.01919 10C0.456307 10 7.02303e-07 9.55228 7.50585e-07 9C7.98867e-07 8.44771 0.456307 8 1.01919 8L18.5202 8L12.5288 2.12141C12.1308 1.73089 12.1308 1.09772 12.5288 0.707198C12.9268 0.316674 13.5721 0.316674 13.9701 0.707198L21.6896 8.28128C21.6936 8.28508 21.6975 8.28892 21.7015 8.2928C21.9005 8.48809 22 8.74405 22 9C22 9.25595 21.9005 9.51191 21.7015 9.7072C21.6975 9.71107 21.6936 9.71491 21.6896 9.71871L13.9701 17.2928C13.5721 17.6833 12.9268 17.6833 12.5288 17.2928Z" fill="#073592"/>
</svg>
