<svg width="16" height="16" viewBox="0 0 16 16" fill="none" xmlns="http://www.w3.org/2000/svg">
<path d="M15.388 3.56723C16.204 2.75117 16.204 1.4281 15.388 0.612042C14.5719 -0.20402 13.2488 -0.204008 12.4328 0.612042L8 5.04482L3.56723 0.612042C2.75116 -0.20402 1.42809 -0.204008 0.612042 0.612042C-0.204008 1.42809 -0.20402 2.75116 0.612042 3.56723L5.04482 8L0.612042 12.4328C-0.204008 13.2488 -0.20402 14.5719 0.612042 15.388C1.4281 16.204 2.75117 16.204 3.56723 15.388L8 10.9552L12.4328 15.388C13.2488 16.204 14.5719 16.204 15.388 15.388C16.204 14.5719 16.204 13.2488 15.388 12.4328L10.9552 8L15.388 3.56723Z" fill="#2EC5F4"/>
</svg>
