<svg width="10" height="13" viewBox="0 0 10 13" fill="none" xmlns="http://www.w3.org/2000/svg">
<path fill-rule="evenodd" clip-rule="evenodd" d="M0.000554078 1.00317C-0.0180006 0.451172 0.43189 0 0.984197 0H8.9842C9.5365 0 9.98639 0.451172 9.96784 1.00317C9.78748 6.36279 8.13691 8.448 5.9842 8.90088V11H6.9842C7.5365 11 7.9842 11.4478 7.9842 12C7.9842 12.5522 7.5365 13 6.9842 13H2.9842C2.43189 13 1.9842 12.5522 1.9842 12C1.9842 11.4478 2.43189 11 2.9842 11H3.9842V8.90088C1.83149 8.448 0.180913 6.36279 0.000554078 1.00317ZM6.40523 2.74792C6.98243 2.86166 7.87021 3.0366 7.99958 3.24939C8.01853 3.50262 7.3855 4.18932 6.98444 4.62439C6.895 4.72142 6.81709 4.80593 6.76053 4.87033C6.76857 4.94196 6.77866 5.02502 6.78967 5.11572C6.86165 5.70838 6.97327 6.62744 6.81401 6.81907C6.58484 6.91337 5.75385 6.51858 5.22156 6.26569C5.09958 6.20774 4.9933 6.15725 4.91353 6.1218C4.85079 6.15098 4.77858 6.18533 4.69981 6.22281C4.16746 6.47608 3.3356 6.87184 3.10575 6.7756C2.9459 6.5837 3.05967 5.65539 3.13231 5.06267C3.14878 4.92821 3.16315 4.81103 3.17172 4.72363C3.12703 4.67443 3.0752 4.61825 3.01871 4.55702C2.61765 4.12232 1.98165 3.43298 2.00041 3.18057C2.12997 2.96851 3.01863 2.79307 3.59628 2.67902C3.73399 2.65183 3.85403 2.62813 3.94189 2.60826C3.97503 2.54848 4.01271 2.47921 4.05379 2.40366C4.33763 1.88173 4.78445 1.06012 5.02585 1C5.26737 1.0606 5.71315 1.88117 5.99684 2.40338C6.06075 2.52104 6.11644 2.62355 6.15972 2.69881C6.23106 2.7136 6.31429 2.73 6.40523 2.74792Z" fill="#FFE500"/>
</svg>
