<svg width="120" height="112" viewBox="0 0 120 112" fill="none" xmlns="http://www.w3.org/2000/svg">
<path d="M0 0H120V101C120 107.075 115.075 112 109 112H11C4.92486 112 0 107.075 0 101V0Z" fill="white"/>
<path fill-rule="evenodd" clip-rule="evenodd" d="M35 36.9719C35 32.9829 36.5738 29.2268 39.436 26.3922C40.8394 24.995 42.5044 23.8879 44.3358 23.1343C46.1672 22.3807 48.1292 21.9953 50.1096 22H85V29.6074H50.1096C48.1432 29.6056 46.2564 30.3841 44.8635 31.7722C44.1718 32.4501 43.6222 33.2591 43.2466 34.1519C42.871 35.0447 42.6771 36.0033 42.6762 36.9719L42.6324 49.7414C42.2768 53.1331 39.6964 55.8688 36.3585 56.3734L35 56.58V36.9719ZM35 72.0814V64.4728H69.8904C70.8637 64.4745 71.8277 64.2839 72.7272 63.912C73.6266 63.5401 74.4436 62.9941 75.1315 62.3055C75.8252 61.6298 76.3764 60.8218 76.7525 59.9293C77.1287 59.0369 77.322 58.0781 77.3213 57.1096L77.3275 44.9899C77.3275 41.3803 80.0419 38.2502 83.6428 37.7056L85 37.5015V57.1096C85 61.0986 83.4262 64.8534 80.5628 67.6868C79.1603 69.0851 77.4957 70.1931 75.6644 70.9472C73.833 71.7013 71.871 72.0867 69.8904 72.0814H35ZM64.6069 56.58V46.8855L59.9994 52.1903L55.3906 46.8855V56.58H49.2857V37.5015H55.0689L59.9994 43.6352L64.9286 37.5015H70.7143V56.58H64.6069Z" fill="#E6000E"/>
<path fill-rule="evenodd" clip-rule="evenodd" d="M49.5677 86.6233H47.656L48.612 84.1557L49.5677 86.6233ZM50.212 88.2859L50.6385 89.3885H52.7417L49.5789 81.5239H47.6773L44.5139 89.3885H46.5845L47.012 88.2859H50.212ZM41.1615 89.3891V84.715L39.1084 87.1839L37.0562 84.715V89.3891H35V81.5246H37.0281L39.1084 84.2287L41.1894 81.5246H43.2174V89.3891H41.1615ZM54.0491 81.5246V89.3891H56.1059V83.351H58.9814V81.5246H54.0491ZM65.5447 86.3081V89.3891H67.6013V81.5246H65.5447V84.4596H62.4903V81.5246H60.434V89.3891H62.4903V86.3081H65.5447ZM80.5302 89.3891V83.351H78.1275V81.5246H85V83.351H82.5867V89.3891H80.5302ZM74.6246 84.9069V89.3891H76.6821V81.5246H74.9062L71.6884 85.9595V81.5246H69.6313V89.3891H71.3514L74.6246 84.9069Z" fill="#E6000E"/>
</svg>
