<svg width="60" height="82" viewBox="0 0 60 82" fill="none" xmlns="http://www.w3.org/2000/svg">
<path d="M0 0H60V71C60 77.0751 55.0751 82 49 82H11C4.92487 82 0 77.0751 0 71V0Z" fill="white"/>
<path fill-rule="evenodd" clip-rule="evenodd" d="M13 32.1809C13 29.4684 14.0702 26.9142 16.0165 24.9867C16.9708 24.0366 18.103 23.2838 19.3484 22.7713C20.5937 22.2589 21.9278 21.9968 23.2745 22H47V27.173H23.2745C21.9373 27.1718 20.6543 27.7012 19.7072 28.6451C19.2368 29.1061 18.8631 29.6562 18.6077 30.2633C18.3523 30.8704 18.2205 31.5223 18.2198 32.1809L18.19 40.8641C17.9482 43.1705 16.1935 45.0308 13.9238 45.3739L13 45.5144V32.1809ZM13 56.0554V50.8815H36.7255C37.3873 50.8827 38.0429 50.7531 38.6545 50.5001C39.2661 50.2472 39.8217 49.876 40.2894 49.4078C40.7611 48.9482 41.136 48.3988 41.3917 47.7919C41.6475 47.1851 41.779 46.5331 41.7785 45.8745L41.7827 37.6331C41.7827 35.1786 43.6285 33.0501 46.0771 32.6798L47 32.541V45.8745C47 48.587 45.9298 51.1403 43.9827 53.067C43.029 54.0179 41.8971 54.7713 40.6518 55.2841C39.4065 55.7969 38.0722 56.059 36.7255 56.0554H13ZM33.1327 45.5144V38.9221L29.9996 42.5294L26.8656 38.9221V45.5144H22.7143V32.541H26.6468L29.9996 36.7119L33.3515 32.541H37.2857V45.5144H33.1327Z" fill="#E6000E"/>
<path fill-rule="evenodd" clip-rule="evenodd" d="M22.906 65.9439H21.6061L22.2562 64.2659L22.906 65.9439ZM23.3441 67.0744L23.6342 67.8242H25.0643L22.9137 62.4763H21.6205L19.4695 67.8242H20.8775L21.1682 67.0744H23.3441ZM17.1898 67.8246V64.6463L15.7937 66.3251L14.3982 64.6463V67.8246H13V62.4767H14.3791L15.7937 64.3156L17.2088 62.4767H18.5879V67.8246H17.1898ZM25.9534 62.4767V67.8246H27.352V63.7187H29.3074V62.4767H25.9534ZM33.7704 65.7295V67.8246H35.1689V62.4767H33.7704V64.4726H31.6934V62.4767H30.2951V67.8246H31.6934V65.7295H33.7704ZM43.9605 67.8246V63.7187H42.3267V62.4767H47V63.7187H45.359V67.8246H43.9605ZM39.9447 64.7768V67.8246H41.3438V62.4767H40.1362L37.9481 65.4925V62.4767H36.5492V67.8246H37.719L39.9447 64.7768Z" fill="#E6000E"/>
</svg>
