<svg width="13" height="13" viewBox="0 0 13 13" fill="none" xmlns="http://www.w3.org/2000/svg">
<path d="M10.6439 3.54603C10.2875 3.23011 8.33423 3.48508 7.44628 3.56701C6.87548 3.03549 5.33407 1.41097 4.82655 1.4369C4.41862 1.67889 4.05773 3.624 3.86537 4.49574C3.18665 4.87897 1.17229 5.84439 1.04173 6.33587C1.14509 6.80014 2.87929 7.74914 3.64681 8.20238C3.79855 8.9699 4.09605 11.1925 4.52128 11.4689C4.99491 11.5155 6.42446 10.1569 7.09273 9.56487C7.86603 9.65792 10.0631 10.0647 10.4571 9.74585C10.6445 9.30883 9.79576 7.52128 9.44139 6.6998C9.7676 5.99322 10.8288 4.02302 10.6439 3.54603Z" fill="#073592"/>
</svg>
